<svg width="130" height="40" viewBox="0 0 130 40" fill="none" xmlns="http://www.w3.org/2000/svg">
<path d="M33.3333 9.99999H24.0233L27.8449 6.17832L25.4883 3.82166L19.9999 9.30999L14.5116 3.82166L12.1549 6.17832L15.9766 9.99999H6.66659C4.82825 9.99999 3.33325 11.495 3.33325 13.3333V31.6667C3.33325 33.505 4.82825 35 6.66659 35H33.3333C35.1716 35 36.6666 33.505 36.6666 31.6667V13.3333C36.6666 11.495 35.1716 9.99999 33.3333 9.99999Z" fill="#FDFDFD"/>
<path d="M70.8844 10.1458V30H66.9022V17.0862L61.5831 30H58.568L53.2204 17.0862V30H49.2382V10.1458H53.7609L60.0755 24.9084L66.3902 10.1458H70.8844ZM80.6811 30.256C79.164 30.256 77.7987 29.9241 76.5851 29.2604C75.3715 28.5778 74.4138 27.6201 73.7122 26.3876C73.0295 25.155 72.6882 23.7327 72.6882 22.1209C72.6882 20.509 73.039 19.0868 73.7406 17.8542C74.4612 16.6216 75.4378 15.6735 76.6704 15.0098C77.903 14.3271 79.2778 13.9858 80.7949 13.9858C82.3119 13.9858 83.6867 14.3271 84.9193 15.0098C86.1519 15.6735 87.119 16.6216 87.8206 17.8542C88.5412 19.0868 88.9015 20.509 88.9015 22.1209C88.9015 23.7327 88.5318 25.155 87.7922 26.3876C87.0716 27.6201 86.0855 28.5778 84.834 29.2604C83.6014 29.9241 82.2171 30.256 80.6811 30.256ZM80.6811 26.7858C81.4017 26.7858 82.0749 26.6151 82.7006 26.2738C83.3454 25.9135 83.8574 25.3825 84.2366 24.6809C84.6159 23.9793 84.8055 23.1259 84.8055 22.1209C84.8055 20.6228 84.4073 19.4756 83.6109 18.6791C82.8334 17.8637 81.8758 17.456 80.738 17.456C79.6002 17.456 78.6426 17.8637 77.8651 18.6791C77.1066 19.4756 76.7273 20.6228 76.7273 22.1209C76.7273 23.619 77.0971 24.7757 77.8366 25.5911C78.5952 26.3876 79.5433 26.7858 80.6811 26.7858ZM97.2555 26.3307L101.238 14.2418H105.476L99.6449 30H94.8093L89.0066 14.2418H93.2733L97.2555 26.3307ZM108.594 12.3644C107.893 12.3644 107.305 12.1464 106.831 11.7102C106.376 11.2551 106.148 10.6957 106.148 10.032C106.148 9.3683 106.376 8.81837 106.831 8.38222C107.305 7.92711 107.893 7.69955 108.594 7.69955C109.296 7.69955 109.874 7.92711 110.33 8.38222C110.804 8.81837 111.041 9.3683 111.041 10.032C111.041 10.6957 110.804 11.2551 110.33 11.7102C109.874 12.1464 109.296 12.3644 108.594 12.3644ZM110.557 14.2418V30H106.575V14.2418H110.557ZM128.003 21.7796C128.003 22.3484 127.965 22.8604 127.889 23.3156H116.369C116.464 24.4533 116.862 25.3446 117.564 25.9893C118.265 26.6341 119.128 26.9564 120.152 26.9564C121.631 26.9564 122.684 26.3212 123.309 25.0507H127.604C127.149 26.5677 126.277 27.8193 124.988 28.8053C123.698 29.7724 122.115 30.256 120.237 30.256C118.72 30.256 117.355 29.9241 116.141 29.2604C114.947 28.5778 114.008 27.6201 113.325 26.3876C112.662 25.155 112.33 23.7327 112.33 22.1209C112.33 20.4901 112.662 19.0584 113.325 17.8258C113.989 16.5932 114.918 15.645 116.113 14.9813C117.308 14.3176 118.682 13.9858 120.237 13.9858C121.735 13.9858 123.072 14.3081 124.248 14.9529C125.443 15.5976 126.362 16.5173 127.007 17.712C127.671 18.8877 128.003 20.2436 128.003 21.7796ZM123.878 20.6418C123.859 19.6178 123.489 18.8024 122.769 18.1956C122.048 17.5698 121.166 17.2569 120.124 17.2569C119.137 17.2569 118.303 17.5603 117.62 18.1671C116.957 18.755 116.549 19.5799 116.397 20.6418H123.878Z" fill="#FDFDFD"/>
</svg>
